<?xml version="1.0" ?><!DOCTYPE svg  PUBLIC '-//W3C//DTD SVG 1.1//EN'  'http://www.w3.org/Graphics/SVG/1.1/DTD/svg11.dtd'><svg fill-rule="evenodd" height="75pt" overflow="visible" stroke-linejoin="bevel" stroke-width="0.501" version="1.1" viewBox="0 0 75 75" width="75pt" xmlns="http://www.w3.org/2000/svg" xmlns:xlink="http://www.w3.org/1999/xlink"><defs/><g fill="none" font-family="Times New Roman" font-size="16" id="Document" stroke="black" transform="scale(1 -1)"><g id="Spread" transform="translate(0 -75)"><g id="Layer 1"><path d="M 20.467,6.465 C 13.705,9.938 7.847,17.303 5.351,23.424 C 2.884,28.92 2.816,37.27 4.468,43.84 C 5.55,48.133 8.986,53.505 11.289,55.305 C 13.713,57.204 19.878,59.215 21.314,54.858 C 22.534,51.154 16.629,47.743 15.17,45.23 C 11.643,39.16 11.543,31.95 14.347,24.912 L 14.683,24.218 L 14.563,24.647 C 14.227,26.419 14.193,28.283 14.611,29.78 C 15.267,32.123 16.289,33.514 16.845,34.961 L 17.21,36.442 L 17.165,36.793 C 17.066,37.014 16.806,36.876 16.317,37.407 L 16.26,37.48 L 16.223,37.537 L 16.006,37.67 C 14.988,38.553 14.129,41.098 16.415,42.366 C 19.439,44.043 21.99,42.064 22.716,40.383 C 23.509,38.55 24.229,35.766 24.543,33.985 L 24.573,33.787 L 25.275,34.551 C 25.809,35.117 26.398,35.707 26.848,36.064 L 26.917,36.111 L 26.761,37.135 C 26.667,39.832 28.489,41.79 30.878,42.065 L 31.147,42.063 L 31.037,42.255 C 30.636,43.104 30.259,44.214 29.919,45.499 L 29.826,45.881 L 29.073,45.703 C 28.773,45.617 28.446,45.51 28.116,45.391 C 27.457,45.154 26.835,44.883 26.456,44.665 C 26.204,44.52 25.883,44.607 25.738,44.858 C 25.593,45.11 25.68,45.431 25.931,45.576 C 26.388,45.839 27.076,46.134 27.759,46.38 C 28.1,46.503 28.451,46.618 28.783,46.713 L 29.58,46.9 L 29.451,47.54 L 29.377,47.514 C 28.695,47.547 28.083,47.58 27.473,47.554 C 26.869,47.528 26.293,47.443 25.722,47.246 C 25.448,47.151 25.149,47.297 25.054,47.571 C 24.959,47.845 25.105,48.144 25.379,48.239 C 26.071,48.479 26.755,48.575 27.428,48.604 C 27.764,48.618 28.099,48.616 28.432,48.606 L 29.242,48.571 L 29.201,48.775 C 27.739,56.81 27.625,67.979 30.883,69.581 C 30.951,69.615 31.027,69.633 31.104,69.635 C 33.642,69.687 36.003,65.306 36.808,63.622 L 36.858,63.513 L 37.573,63.728 C 40.198,64.485 44.475,65.54 47.215,65.657 L 47.955,65.642 L 48.094,66.364 C 48.524,69.243 48.57,73.67 51.289,74.044 C 55.055,74.263 59.55,64.73 62.119,60.219 C 62.952,58.755 63.761,57.374 64.527,55.995 L 64.895,55.276 L 65.594,55.579 C 65.878,55.713 66.151,55.849 66.436,55.985 C 67.006,56.258 67.613,56.525 68.326,56.71 C 68.606,56.783 68.893,56.614 68.966,56.333 C 69.039,56.053 68.87,55.766 68.589,55.693 C 67.975,55.534 67.441,55.3 66.89,55.037 L 65.373,54.343 L 65.898,53.315 L 69.759,54.097 C 70.044,54.147 70.317,53.955 70.366,53.669 C 70.416,53.384 70.224,53.111 69.938,53.062 C 68.95,52.89 67.99,52.692 67.023,52.484 L 66.394,52.347 L 66.682,51.786 C 68.011,48.88 69.099,45.668 69.804,41.515 C 70.848,33.443 70.424,24.429 66.537,17.171 C 63.224,10.984 57.298,5.716 50.71,3.283 C 39.959,-0.692 29.43,1.864 20.467,6.465 Z M 50.345,4.268 C 56.685,6.611 62.415,11.699 65.61,17.668 C 69.351,24.65 69.793,33.41 68.765,41.36 C 67.393,49.432 64.553,53.821 61.206,59.698 C 59.816,62.138 58.074,65.535 56.254,68.331 C 54.831,70.515 53.503,72.088 52.393,72.707 L 51.381,72.99 L 50.731,72.673 C 49.382,71.43 49.441,67.085 48.895,64.979 C 48.83,64.727 48.59,64.56 48.331,64.588 C 45.74,64.865 39.432,63.227 36.729,62.377 C 36.472,62.297 36.196,62.423 36.089,62.67 C 35.616,63.762 33.717,67.503 31.896,68.393 L 31.25,68.553 L 30.734,68.095 C 27.972,64.359 29.538,45.94 32.477,41.843 C 32.743,41.472 32.438,40.959 31.985,41.015 C 29.678,41.298 27.707,39.683 27.813,37.141 L 27.953,36.248 L 28.149,35.928 C 28.401,35.659 28.776,35.461 29.179,35.392 C 29.405,35.352 29.626,35.356 29.824,35.402 C 30.02,35.448 30.192,35.535 30.331,35.664 C 30.544,35.86 30.877,35.847 31.074,35.634 C 31.27,35.421 31.257,35.088 31.044,34.891 C 30.757,34.626 30.416,34.461 30.063,34.379 C 29.712,34.297 29.347,34.296 28.999,34.356 C 28.656,34.415 28.315,34.537 28.007,34.715 L 27.444,35.208 L 27.368,35.156 C 26.98,34.846 26.504,34.344 26.047,33.838 L 25.272,32.969 L 25.174,32.731 C 22.71,30.256 20.81,26.694 21.926,23.531 C 22.023,23.258 21.879,22.957 21.605,22.861 C 21.332,22.764 21.031,22.908 20.935,23.182 C 19.778,26.46 21.355,29.906 23.487,32.443 L 23.657,32.628 L 23.616,33.114 C 23.43,34.586 22.645,37.899 21.751,39.966 C 21.195,41.253 19.25,42.736 16.924,41.447 C 15.356,40.576 16.223,38.592 16.789,38.395 C 16.901,38.356 16.996,38.281 17.059,38.182 L 17.102,38.114 L 17.244,38.06 C 17.565,37.885 18.265,37.356 18.265,36.415 L 18.263,36.364 C 18.044,34.101 16.389,32.229 15.624,29.497 C 14.88,26.833 15.775,22.693 17.181,20.666 C 17.572,20.103 16.746,19.503 16.331,20.048 C 15.453,21.202 14.22,22.394 13.37,24.523 C 10.472,31.801 10.542,39.357 14.261,45.757 C 15.929,48.63 21.27,51.632 20.315,54.529 C 19.353,57.452 14.594,56.559 11.936,54.478 C 9.851,52.846 6.523,47.694 5.487,43.583 C 3.871,37.159 3.971,29.067 6.318,23.837 C 8.744,17.888 14.448,10.739 20.948,7.4 C 29.767,2.873 39.974,0.435 50.345,4.268 Z M 30.933,15.091 C 30.848,15.368 31.004,15.662 31.282,15.747 C 35.82,17.135 36.622,22.648 33.176,23.542 C 31.491,23.977 31.706,26.229 32.056,27.858 C 32.448,29.681 33.216,31.636 33.57,32.507 C 33.831,33.148 33.368,34.663 33.221,35.918 C 33.049,37.394 33.204,39.07 35.209,39.826 C 38.586,41.098 40.356,38.348 40.97,35.532 C 41.434,33.403 41.375,30.869 40.861,29.144 L 40.731,28.797 L 41.53,28.848 C 46.265,28.754 52.344,23.431 53.45,19.288 C 53.525,19.008 53.358,18.72 53.078,18.645 C 52.798,18.57 52.51,18.737 52.435,19.017 C 51.269,23.387 43.988,29.023 39.961,27.562 C 39.468,27.383 39.045,27.962 39.366,28.377 C 40.154,29.398 40.542,32.563 39.943,35.308 C 39.39,37.845 38.06,39.777 35.58,38.843 C 34.278,38.352 34.11,37.368 34.265,36.04 C 34.424,34.681 34.959,33.131 34.543,32.11 C 34.191,31.245 33.455,29.363 33.084,27.637 C 32.664,25.681 32.86,24.709 33.439,24.559 C 38.004,23.376 37.053,16.413 31.589,14.742 C 31.312,14.657 31.018,14.813 30.933,15.091 Z M 48.801,33.748 C 48.309,34.948 48.44,36.486 48.964,37.645 C 50.404,40.835 55.558,42.147 59.073,39.708 C 59.311,39.543 59.371,39.215 59.205,38.977 C 59.04,38.739 58.712,38.679 58.474,38.845 C 55.426,40.959 51.056,39.725 49.921,37.212 C 49.494,36.264 49.411,35.031 49.774,34.147 C 50.102,33.344 50.815,32.768 52.236,33.042 C 52.653,33.122 53.018,33.313 53.388,33.574 C 53.798,33.862 54.087,34.134 54.542,34.479 C 55.396,35.129 56.432,35.676 58,35.235 C 58.279,35.157 58.442,34.867 58.363,34.587 C 58.285,34.308 57.995,34.145 57.715,34.224 C 56.587,34.541 55.895,34.188 55.177,33.643 C 54.306,32.981 53.592,32.232 52.435,32.009 C 50.535,31.644 49.326,32.468 48.801,33.748 Z M 41.829,47.351 C 41.695,47.608 41.795,47.925 42.053,48.06 C 42.31,48.194 42.627,48.094 42.762,47.836 C 42.881,47.608 43.124,47.449 43.498,47.4 C 43.875,47.35 44.326,47.426 44.722,47.613 C 45.121,47.802 45.403,48.073 45.522,48.359 C 45.562,48.456 45.589,48.566 45.59,48.69 L 45.584,48.789 L 45.536,48.868 C 45.413,49.09 45.319,49.337 45.26,49.609 C 45.137,50.174 45.894,50.493 46.213,50.009 C 46.388,49.741 46.508,49.473 46.577,49.201 L 46.631,49.128 C 46.992,48.697 47.56,48.458 48.136,48.451 C 48.876,48.442 49.632,48.814 49.689,49.8 C 49.705,50.089 49.954,50.311 50.244,50.294 C 50.533,50.278 50.755,50.029 50.738,49.739 C 50.649,48.188 49.426,47.384 48.123,47.4 C 47.586,47.407 47.032,47.553 46.551,47.836 L 46.462,47.894 L 46.386,47.738 C 46.112,47.251 45.655,46.892 45.171,46.663 C 44.614,46.4 43.961,46.279 43.362,46.358 C 42.759,46.437 42.153,46.73 41.829,47.351 Z M 33.402,48.931 C 33.157,49.086 33.083,49.41 33.238,49.656 C 35.079,52.574 38.993,53.012 41.84,51.097 C 42.08,50.935 42.144,50.608 41.983,50.367 C 41.821,50.127 41.494,50.063 41.253,50.224 C 38.839,51.848 35.609,51.445 34.127,49.095 C 33.972,48.85 33.648,48.776 33.402,48.931 Z M 48.831,51.741 C 48.565,51.856 48.442,52.166 48.557,52.432 C 49.835,55.385 54.735,55.889 57.137,53.966 C 57.363,53.784 57.4,53.454 57.219,53.227 C 57.037,53.001 56.707,52.964 56.48,53.145 C 54.536,54.701 50.482,54.234 49.522,52.015 C 49.407,51.749 49.097,51.626 48.831,51.741 Z" fill="#000000" fill-rule="evenodd" marker-end="none" marker-start="none" stroke="none" stroke-miterlimit="79.8403193612775" stroke-width="0.5"/></g></g></g></svg>